<svg class="svg-canvas" viewBox="79.74797998979378 162.18154707280385 275.63690585437234 275.63690585437234" width="1200" height="1200" preserveAspectRatio="none" version="1.1" xmlns="http://www.w3.org/2000/svg" xmlns:xlink="http://www.w3.org/1999/xlink" style="background:#f8e8e9"><g id="shape_o3d8MHnCfH" ref="shape_o3d8MHnCfH" key="shape_o3d8MHnCfH" mask=""><defs></defs><defs></defs>
    <g transform="translate(120,187.708615395425) rotate(0,97.566432916982,112.29138460457) scale(1,1)" style="opacity: 1;mix-blend-mode: undefined;" filter="">
        <!--普通元素-->
        <svg data-noselect="" viewBox="290.31823597848 106.37472119673164 194.76632661416818 224.16091104262745" width="195.13286583396" height="224.58276920913" ref="svg_canvas" preserveAspectRatio="none" version="1.1" xmlns="http://www.w3.org/2000/svg" style="background: transparent;" class="style-removed" data-parent="shape_o3d8MHnCfH">


            <g id="shape_TjUftCViw1" class="icon custom-icon" ref="shape_TjUftCViw1" key="shape_TjUftCViw1" mask="">
                <g transform="translate(291.31823597848,107.34197911535) rotate(0,96.392687587567,111.06114004655) scale(1,1)" style="" filter="" cursor="move" display="inline" opacity="1">
                    <g style="" display="inline"><svg version="1.1" id="LnAn5jcLl7" xmlns="http://www.w3.org/2000/svg" xmlns:xlink="http://www.w3.org/1999/xlink" x="0px" y="0px" viewBox="0 0 110.4 127.2" style="enable-background:new 0 0 110.4 127.2;" xml:space="preserve" width="192.78537517513" height="222.1222800931" class="style-removed" preserveAspectRatio="none" data-parent="shape_TjUftCViw1" enable-background="new 0 0 110.4 127.2">

<g>
	<path d="M51.9,63.9c2.1-1.3,3.5-3.6,3.5-6.1V3.9c0-3-3.3-4.9-5.9-3.3l-45.9,28C1.3,29.8,0,32.2,0,34.7v53.9
		c0,3,3.3,4.9,5.9,3.3L51.9,63.9z" fill="#b61523" stroke-width="0"></path>
    <path d="M108.3,91.9L60.7,66.7c-2.2-1.2-4.9-1.1-7,0.2L7.5,94.4c-2.6,1.6-2.5,5.4,0.2,6.8l47.6,25.2
		c2.2,1.2,4.9,1.1,7-0.2l46.2-27.5C111.1,97.2,111,93.3,108.3,91.9z" fill="#b61523" stroke-width="0"></path>
</g>
</svg></g>
                </g>
            </g>
            <g id="shape_MV9wfOvFeX" class="icon custom-icon text brand_word_letter" ref="shape_MV9wfOvFeX" key="shape_MV9wfOvFeX" mask="">
                <g transform="translate(82.7804754502178,-223.58733948131012) rotate(-1,358.5,402.67999999999995) scale(1,1)" style="" filter="" cursor="move" display="inline" opacity="1">
                    <g style="" display="inline"><svg xmlns="http://www.w3.org/2000/svg" version="1.1" xmlns:xlink="http://www.w3.org/1999/xlink" width="717" height="840.7199999999998" viewBox="0 -17.67999999999995 717 840.7199999999998" data-ligature="true" preserveAspectRatio="none" data-parent="shape_MV9wfOvFeX">
                        <g data-role="text" data-width="74.579" data-height="128">
                            <path d="M323.14 335.6Q358.5 353.28 393.86 370.96 393.86 376.73 393.86 382.51 373.42 397.59 352.99 412.68 373.42 422.9 393.86 433.12 393.86 438.9 393.86 444.68 358.5 427 323.14 409.32 323.14 403.54 323.14 397.76 327.79 400.08 332.44 402.41 352.88 387.32 373.32 372.24 348.23 359.69 323.14 347.15 323.14 341.37 323.14 335.6 323.14 335.6 323.14 335.6" fill="#b61523" stroke="#b61523" stroke-width="0.178" data-glyph-w="79.999" data-glyph-h="128.4" data-glyph-ascender="107" data-glyph-descender="-21.4" data-kerning="0"></path>
                        </g>
                    </svg></g>
                </g>
            </g>
            <g id="shape_SZYcew3k11" class="icon custom-icon text brand_word_letter" ref="shape_SZYcew3k11" key="shape_SZYcew3k11" mask="">
                <g transform="translate(76.93943231269395,-89.58115785174601) rotate(-36,328.496520415856,353.496520415856) scale(1,1)" style="" filter="" cursor="move" display="inline" opacity="1">
                    <g style="" display="inline"><svg xmlns="http://www.w3.org/2000/svg" version="1.1" xmlns:xlink="http://www.w3.org/1999/xlink" width="656.993040831712" height="706.993040831712" viewBox="0 0 656.993040831712 706.993040831712" data-ligature="true" preserveAspectRatio="none" data-parent="shape_SZYcew3k11"><g data-role="text" data-width="66.56889211815079" data-height="117" transform="translate(295.21207435678065, 294.996520415856)"><path d="M49.95-67.75L65.78-67.75L41.20-33.92L41.20 0L25.37 0L25.37-33.92L0.79-67.75L16.62-67.75L33.33-44.74L49.95-67.75Z" transform="translate(0 97) skewX(25)" fill="rgb(255, 255, 255)" stroke="rgb(255, 255, 255)" stroke-width="0.164" data-glyph-w="89.99889211815079" data-glyph-h="117.996" data-glyph-ascender="98.33" data-glyph-descender="-19.666" data-kerning="0"></path></g></svg></g>
                </g>
            </g>
            <g id="shape_RECW9Rp5ac" class="icon custom-icon text brand_word_letter" ref="shape_RECW9Rp5ac" key="shape_RECW9Rp5ac" mask="">
                <g transform="translate(18.73522751399497,-178.02717069601505) rotate(0,322.08300846448503,362.50800846448504) scale(1,1)" style="" filter="" cursor="move" display="inline" opacity="1">
                    <g style="" display="inline"><svg xmlns="http://www.w3.org/2000/svg" version="1.1" xmlns:xlink="http://www.w3.org/1999/xlink" width="644.1660169289701" height="756.8660169289701" viewBox="0 -15.930000000000007 644.1660169289701 756.8660169289701" data-ligature="true" preserveAspectRatio="none" data-parent="shape_RECW9Rp5ac">
                        <g data-role="text" data-width="65.6208751625293" data-height="115">
                            <path d="M336.78 311.34Q345.35 307.05 353.93 302.76 342.31 325.14 330.7 347.53 342.31 358.34 353.93 369.15 345.35 373.44 336.78 377.73 329.45 370.93 322.13 364.14 314.8 378.26 307.48 392.38 298.85 396.69 290.23 401 301.83 378.58 313.45 356.15 301.83 345.38 290.23 334.61 298.85 330.3 307.48 325.99 314.8 332.78 322.13 339.57 329.45 325.45 336.78 311.34 336.78 311.34 336.78 311.34" fill="rgb(255, 255, 255)" stroke="rgb(255, 255, 255)" stroke-width="0.161" data-glyph-w="92.9908751625293" data-glyph-h="115.632" data-glyph-ascender="96.36" data-glyph-descender="-19.272" data-kerning="0"></path>
                        </g>
                    </svg></g>
                </g>
            </g>
        </svg>
    </g>
</g></svg>